<svg width="70" height="24" viewBox="0 0 70 24" fill="none" xmlns="http://www.w3.org/2000/svg">
<path d="M10.9116 5.27081C11.6997 5.04553 12.5404 4.92537 13.4126 4.92537C17.2306 4.92537 20.4182 7.25031 21.1467 10.3412L26.5586 9.39501C25.3186 4.14439 19.9033 0.191406 13.4126 0.191406C11.9239 0.191406 10.4982 0.398667 9.16016 0.783152L10.9116 5.27081Z" fill="white"/>
<path d="M4.52562 20.3078L8.18605 16.7603C6.55374 15.5198 5.52392 13.7085 5.52392 11.6899C5.52392 9.67439 6.55374 7.86311 8.18605 6.62555L4.52562 3.07507C1.7514 5.18373 0 8.26261 0 11.6899C0 15.1203 1.7514 18.1991 4.52562 20.3078" fill="white"/>
<path d="M21.1467 13.0477C20.4147 16.1356 17.2306 18.4576 13.4161 18.4576C12.5404 18.4576 11.6962 18.3374 10.9116 18.1091L9.16016 22.6028C10.4982 22.9843 11.9274 23.1915 13.4161 23.1915C19.8997 23.1915 25.3116 19.2445 26.5586 13.9999L21.1467 13.0477Z" fill="white"/>
<path d="M31.2906 16.9076C31.1119 16.6613 30.8738 16.2678 30.7266 15.9764C29.8685 14.2702 29.8299 12.504 30.5515 10.8099C31.3466 8.95053 32.8668 7.52974 34.8319 6.80282C37.3014 5.89267 40.0301 6.0699 42.398 7.27442C43.9007 8.01335 44.9655 9.15479 45.7747 10.7708C45.8763 10.9781 45.9673 11.1974 46.0584 11.3866L31.2906 16.9076ZM36.2225 9.54528C34.4676 10.1911 33.5639 11.6029 33.7531 13.255L41.179 10.5125C39.9005 9.22688 38.2402 8.80034 36.2225 9.54528V9.54528ZM42.1037 15.5108C42.1002 15.5108 42.1002 15.5138 42.1002 15.5138L41.9461 15.4237C41.5013 16.0395 40.8112 16.5411 39.939 16.8655C38.2787 17.4843 36.7409 17.3251 35.6341 16.493L35.5325 16.6252C35.5325 16.6252 35.5325 16.6222 35.529 16.6222L33.6445 19.0403C34.1138 19.3196 34.6147 19.5539 35.1402 19.7431C37.2208 20.4851 39.3505 20.449 41.4487 19.668C42.9654 19.1033 44.1564 18.2443 44.969 17.1539L42.1037 15.5108ZM51.218 3.24634V16.6853L53.656 17.5324L52.2724 20.3018L49.5822 19.3406C48.9797 19.1153 48.5664 18.7729 48.2582 18.3854C47.9604 17.9919 47.7397 17.4482 47.7397 16.7213V3.24634H51.218ZM57.5301 13.264C57.5301 12.1195 58.1221 11.0922 59.0538 10.3954L56.5528 8.00434C54.8574 9.28996 53.7891 11.1673 53.7891 13.258C53.7856 15.3516 54.8539 17.232 56.5458 18.5176L59.0433 16.1266C58.1151 15.4267 57.5301 14.4054 57.5301 13.264V13.264ZM61.9716 17.0758C61.4812 17.0758 61.0049 17.0037 60.5635 16.8775L59.3691 19.9204C60.1852 20.1547 61.0574 20.2838 61.9681 20.2838C65.9263 20.2868 69.2294 17.8778 69.9966 14.6788L66.3256 14.0359C65.9088 15.7751 64.1189 17.0788 61.9716 17.0758V17.0758ZM61.9821 6.24412C61.0749 6.24412 60.2027 6.37028 59.3866 6.60157L60.5705 9.64741C61.0154 9.52125 61.4882 9.45216 61.9786 9.45216C64.1294 9.45517 65.9228 10.7648 66.3291 12.507L70.0001 11.8702C69.247 8.66517 65.9438 6.24712 61.9821 6.24412V6.24412Z" fill="white"/>
</svg>
